<svg width="112" height="112" viewBox="0 0 112 112" fill="none" xmlns="http://www.w3.org/2000/svg">
  <!-- Elegant circular border -->
  <circle cx="56" cy="56" r="54" stroke="#2d5f7e" stroke-width="2" fill="#ffffff"/>

  <!-- Inner decorative circle -->
  <circle cx="56" cy="56" r="48" stroke="#e5e7eb" stroke-width="1" fill="none"/>

  <!-- Stylized fork on left -->
  <g transform="translate(32, 35)">
    <path d="M 8 0 L 8 20 M 4 0 L 4 18 C 4 20 6 22 8 22 L 8 42 M 12 0 L 12 18 C 12 20 10 22 8 22"
          stroke="#2d5f7e" stroke-width="2" stroke-linecap="round" stroke-linejoin="round" fill="none"/>
  </g>

  <!-- Stylized knife on right -->
  <g transform="translate(64, 35)">
    <path d="M 8 0 L 8 26 M 5 0 L 11 0 L 11 12 C 11 16 10 20 8 24"
          stroke="#2d5f7e" stroke-width="2" stroke-linecap="round" stroke-linejoin="round" fill="none"/>
    <path d="M 6 28 L 10 28 L 10 42 L 6 42 Z"
          fill="#2d5f7e"/>
  </g>

  <!-- Wave element representing "Coast" -->
  <path d="M 30 65 Q 38 62 44 65 T 56 65 T 68 65 T 82 65"
        stroke="#5fa3c4" stroke-width="1.5" stroke-linecap="round" fill="none"/>
  <path d="M 30 69 Q 38 66 44 69 T 56 69 T 68 69 T 82 69"
        stroke="#5fa3c4" stroke-width="1.5" stroke-linecap="round" fill="none" opacity="0.6"/>

  <!-- Small decorative stars/accents -->
  <circle cx="56" cy="80" r="1.5" fill="#2d5f7e"/>
  <circle cx="48" cy="80" r="1" fill="#5fa3c4" opacity="0.7"/>
  <circle cx="64" cy="80" r="1" fill="#5fa3c4" opacity="0.7"/>
</svg>
